<?xml version="1.0" encoding="utf-8"?>
<!-- Generator: Adobe Illustrator 16.0.0, SVG Export Plug-In . SVG Version: 6.00 Build 0)  -->
<!DOCTYPE svg PUBLIC "-//W3C//DTD SVG 1.1//EN" "http://www.w3.org/Graphics/SVG/1.1/DTD/svg11.dtd">
<svg version="1.1" id="레이어_1" xmlns="http://www.w3.org/2000/svg" xmlns:xlink="http://www.w3.org/1999/xlink" x="0px"
	 y="0px" width="612px" height="792px" viewBox="0 0 612 792" enable-background="new 0 0 612 792" xml:space="preserve">
<title>sm_search</title>
<path fill="#303030" stroke="#303030" stroke-width="24" stroke-miterlimit="10" d="M591.686,653.045L451.109,511.252
	c86.65-102.535,73.771-255.9-28.764-342.551c-102.535-86.65-255.9-73.772-342.55,28.764C-6.856,300,6.022,453.366,108.558,540.016
	c90.588,76.554,223.199,76.554,313.787,0l141.793,140.577L591.686,653.045z M265.563,558.044
	c-111.871,0-202.561-90.69-202.561-202.561c0-111.871,90.69-202.561,202.561-202.561s202.56,90.689,202.56,202.561
	C468.123,467.354,377.434,558.044,265.563,558.044z"/>
</svg>
