<svg width="32" height="32" viewBox="0 0 32 32" fill="none" xmlns="http://www.w3.org/2000/svg">
<path d="M5.00391 11.8887C4.94653 10.3942 5.49318 8.93469 6.5293 7.83008C7.55872 6.73266 8.98902 6.07436 10.5127 6.00098C11.4566 6.01983 12.3787 6.28042 13.1865 6.75684C14.0014 7.23751 14.671 7.92017 15.1289 8.7334C15.3061 9.04782 15.639 9.24219 16 9.24219C16.361 9.24219 16.6939 9.04782 16.8711 8.7334C17.329 7.92017 17.9986 7.23751 18.8135 6.75684C19.621 6.28059 20.5427 6.01999 21.4863 6.00098C23.0104 6.07412 24.4411 6.73242 25.4707 7.83008C26.5068 8.93469 27.0535 10.3942 26.9961 11.8887C26.9956 11.9014 26.9951 11.9141 26.9951 11.9268C26.9951 13.3274 26.4136 14.8694 25.4277 16.4541C24.4487 18.0279 23.1216 19.5624 21.7539 20.9297C19.7028 22.9802 17.616 24.5983 16.6104 25.3418L16.0068 25.7773L16 25.7812L15.9932 25.7773C15.7577 25.6124 12.9704 23.6518 10.2461 20.9287C8.87837 19.5615 7.5513 18.0268 6.57227 16.4531C5.58655 14.8687 5.00488 13.3273 5.00488 11.9268C5.00488 11.9141 5.00439 11.9014 5.00391 11.8887Z" stroke="#222222" stroke-width="2" stroke-linejoin="round"/>
</svg>
